<?xml version="1.0" encoding="utf-8"?>
<!-- Generator: Adobe Illustrator 24.0.1, SVG Export Plug-In . SVG Version: 6.00 Build 0)  -->
<svg version="1.1" id="Calque_1" xmlns="http://www.w3.org/2000/svg" xmlns:xlink="http://www.w3.org/1999/xlink" x="0px" y="0px"
	 viewBox="0 0 810 810" style="enable-background:new 0 0 810 810;" xml:space="preserve">
<style type="text/css">
	.st0{opacity:0.5;}
	.st1{fill:none;stroke:#000000;stroke-width:2;stroke-miterlimit:10;}
	.st2{opacity:0.5;fill:none;stroke:#000000;stroke-width:2;stroke-miterlimit:10;}
	.st3{opacity:0.25;}
	.st4{opacity:0.25;fill:none;stroke:#000000;stroke-width:2;stroke-miterlimit:10;}
	.st5{opacity:0.75;}
</style>
<g class="st0">
	<path d="M405,2c54.41,0,107.18,10.65,156.87,31.67c47.99,20.3,91.09,49.36,128.1,86.37c37.01,37.01,66.07,80.11,86.37,128.1
		C797.34,297.82,808,350.59,808,405s-10.66,107.18-31.67,156.87c-20.3,47.99-49.36,91.09-86.37,128.1
		c-37.01,37.01-80.11,66.07-128.1,86.37C512.18,797.34,459.41,808,405,808s-107.18-10.66-156.87-31.67
		c-47.99-20.3-91.09-49.36-128.1-86.37c-37.01-37.01-66.07-80.11-86.37-128.1C12.65,512.18,2,459.41,2,405
		s10.65-107.18,31.67-156.87c20.3-47.99,49.36-91.09,86.37-128.1s80.11-66.07,128.1-86.37C297.82,12.65,350.59,2,405,2 M405,0
		C181.32,0,0,181.32,0,405s181.32,405,405,405s405-181.32,405-405S628.68,0,405,0L405,0z"/>
</g>
<g class="st0">
	<path d="M405,263c37.93,0,73.59,14.77,100.41,41.59S547,367.07,547,405s-14.77,73.59-41.59,100.41S442.93,547,405,547
		s-73.59-14.77-100.41-41.59S263,442.93,263,405s14.77-73.59,41.59-100.41S367.07,263,405,263 M405,261c-79.53,0-144,64.47-144,144
		s64.47,144,144,144s144-64.47,144-144S484.53,261,405,261L405,261z"/>
</g>
<g class="st0">
	<line class="st1" x1="405" y1="405" x2="405" y2="0"/>
</g>
<line class="st2" x1="810" y1="405" x2="405" y2="405"/>
<line class="st2" x1="405" y1="810" x2="405" y2="405"/>
<line class="st2" x1="0" y1="405" x2="405" y2="405"/>
<g class="st3">
	<line class="st1" x1="405" y1="405" x2="118.62" y2="118.62"/>
</g>
<line class="st4" x1="691.38" y1="118.62" x2="405" y2="405"/>
<line class="st4" x1="691.38" y1="691.38" x2="405" y2="405"/>
<line class="st4" x1="118.62" y1="691.38" x2="405" y2="405"/>
<g class="st0">
	<path d="M405,335c38.6,0,70,31.4,70,70s-31.4,70-70,70s-70-31.4-70-70S366.4,335,405,335 M405,333c-39.76,0-72,32.24-72,72
		s32.24,72,72,72s72-32.24,72-72S444.76,333,405,333L405,333z"/>
</g>
<g class="st0">
	<path d="M339.9,356.69c-1.34-1.34-1.49-3.1-0.74-4.97l-0.07-0.03c-1.74,0.62-3.17,0.21-4.08-0.71c-1.69-1.69-1.41-4.26,0.46-6.13
		c2.07-2.07,4.4-1.8,5.72-0.47c0.9,0.9,1.43,2.31,0.74,4.25l0.05,0.05c1.85-0.8,3.61-0.69,4.9,0.61c1.85,1.85,1.51,4.69-0.52,6.72
		C344.13,358.23,341.46,358.25,339.9,356.69z M336.28,349.52c1.07,1.07,2.44,0.84,4-0.07c0.61-1.23,0.66-2.59-0.31-3.56
		c-0.85-0.85-2.25-1.23-3.54,0.07C335.23,347.16,335.36,348.6,336.28,349.52z M345.58,350.88c-1.3-1.3-2.82-1.02-4.67,0.02
		c-0.89,1.61-0.74,3.1,0.28,4.12c1.03,1.13,2.8,1.26,4.17-0.1C346.64,353.62,346.67,351.98,345.58,350.88z"/>
	<path d="M348.07,335.04l-4.07,4.07l2.33,3.15c0.21-0.28,0.41-0.54,0.8-0.94c0.82-0.82,1.82-1.46,2.87-1.72
		c1.31-0.36,2.92-0.13,4.26,1.21c2.08,2.08,1.98,5.3-0.33,7.61c-1.16,1.16-2.48,1.82-3.31,2l-0.74-1.46
		c0.71-0.18,1.9-0.72,2.87-1.69c1.36-1.36,1.64-3.41,0.21-4.84c-1.39-1.36-3.3-1.43-5.43,0.71c-0.61,0.61-1.02,1.15-1.36,1.59
		l-4.43-5.81l5.1-5.1L348.07,335.04z"/>
	<path d="M354.55,329.25c1.33,1.33,1.13,3.26,0,4.4c-1.28,1.28-3.12,1.18-4.26,0.03c-1.28-1.25-1.25-3.18-0.03-4.4
		C351.6,327.93,353.43,328.13,354.55,329.25z M351.17,332.79c0.75,0.75,1.9,0.79,2.62,0.07c0.74-0.74,0.69-1.9-0.12-2.71
		c-0.61-0.61-1.74-1.02-2.67-0.08C350.15,330.92,350.47,332.08,351.17,332.79z"/>
</g>
<g class="st0">
	<path d="M285.9,302.69c-1.34-1.34-1.49-3.1-0.74-4.97l-0.07-0.03c-1.74,0.62-3.17,0.21-4.08-0.71c-1.69-1.69-1.41-4.26,0.46-6.13
		c2.07-2.07,4.4-1.8,5.72-0.48c0.9,0.9,1.43,2.31,0.74,4.25l0.05,0.05c1.85-0.8,3.61-0.69,4.9,0.61c1.85,1.85,1.51,4.69-0.52,6.72
		C290.13,304.23,287.46,304.25,285.9,302.69z M282.28,295.52c1.07,1.07,2.44,0.84,4-0.07c0.61-1.23,0.66-2.59-0.31-3.56
		c-0.85-0.85-2.25-1.23-3.54,0.07C281.23,293.16,281.36,294.6,282.28,295.52z M291.58,296.88c-1.3-1.3-2.82-1.02-4.67,0.02
		c-0.89,1.61-0.74,3.1,0.28,4.12c1.03,1.13,2.8,1.26,4.17-0.1C292.64,299.62,292.67,297.98,291.58,296.88z"/>
	<path d="M298.79,284.32c3.62,3.62,4.28,6.97,1.92,9.33c-2.08,2.08-5.44,1.54-9-1.95c-3.58-3.58-4-7.09-1.84-9.25
		C292.12,280.2,295.4,280.92,298.79,284.32z M293.17,290.27c2.77,2.77,5.2,3.49,6.51,2.18c1.48-1.48,0.46-3.9-2.26-6.63
		c-2.62-2.62-5.02-3.67-6.51-2.18C289.64,284.91,290.26,287.37,293.17,290.27z"/>
	<path d="M300.55,275.25c1.33,1.33,1.13,3.26,0,4.4c-1.28,1.28-3.12,1.18-4.26,0.03c-1.28-1.25-1.25-3.18-0.03-4.4
		C297.6,273.93,299.43,274.13,300.55,275.25z M297.17,278.79c0.75,0.75,1.9,0.79,2.62,0.06c0.74-0.74,0.69-1.9-0.12-2.71
		c-0.61-0.61-1.74-1.02-2.67-0.08C296.15,276.92,296.47,278.08,297.17,278.79z"/>
</g>
<g class="st0">
	<path d="M240,242.68l0.95,0.95l5.07,14.35l-1.49,1.49l-4.81-14.05l-0.03-0.03l-5.21,5.22l-1.2-1.2L240,242.68z"/>
	<path d="M249.07,236.04L245,240.1l2.33,3.15c0.21-0.28,0.41-0.54,0.8-0.94c0.82-0.82,1.82-1.46,2.87-1.72
		c1.31-0.36,2.92-0.13,4.26,1.21c2.08,2.08,1.98,5.3-0.33,7.61c-1.16,1.16-2.48,1.82-3.31,2l-0.74-1.46
		c0.71-0.18,1.9-0.72,2.87-1.69c1.36-1.36,1.64-3.41,0.21-4.84c-1.39-1.36-3.3-1.43-5.43,0.71c-0.61,0.61-1.02,1.15-1.36,1.59
		l-4.43-5.81l5.1-5.1L249.07,236.04z"/>
	<path d="M255.55,230.25c1.33,1.33,1.13,3.26,0,4.4c-1.28,1.28-3.12,1.18-4.26,0.03c-1.28-1.25-1.25-3.18-0.03-4.4
		C252.6,228.93,254.43,229.13,255.55,230.25z M252.17,233.79c0.75,0.75,1.9,0.79,2.62,0.06c0.74-0.74,0.69-1.9-0.12-2.71
		c-0.61-0.61-1.74-1.02-2.67-0.08C251.15,231.92,251.47,233.08,252.17,233.79z"/>
</g>
<g class="st0">
	<path d="M204,206.68l0.95,0.95l5.07,14.35l-1.49,1.49l-4.81-14.05l-0.03-0.03l-5.21,5.22l-1.2-1.2L204,206.68z"/>
	<path d="M217.79,203.32c3.62,3.62,4.28,6.97,1.92,9.33c-2.08,2.08-5.44,1.54-9-1.95c-3.58-3.58-4-7.09-1.84-9.25
		C211.12,199.2,214.4,199.92,217.79,203.32z M212.17,209.27c2.77,2.77,5.2,3.49,6.51,2.18c1.48-1.48,0.46-3.9-2.26-6.63
		c-2.62-2.62-5.02-3.67-6.51-2.18C208.64,203.91,209.26,206.37,212.17,209.27z"/>
	<path d="M219.55,194.25c1.33,1.33,1.13,3.26,0,4.4c-1.28,1.28-3.12,1.18-4.26,0.03c-1.28-1.25-1.25-3.18-0.03-4.4
		C216.6,192.93,218.43,193.13,219.55,194.25z M216.17,197.79c0.75,0.75,1.9,0.79,2.62,0.06c0.74-0.74,0.69-1.9-0.12-2.71
		c-0.61-0.61-1.74-1.02-2.67-0.08C215.15,195.92,215.47,197.08,216.17,197.79z"/>
</g>
<g class="st0">
	<path d="M168.18,172.53c-0.31,0.28-0.67,0.67-1.02,1.15c-1.89,2.64-1.43,5.49,0.08,7.5l0.05-0.05c-0.16-1.18,0.16-2.62,1.34-3.8
		c1.89-1.89,4.58-1.85,6.66,0.23c1.95,1.95,2.43,5.08,0.21,7.3c-2.28,2.28-5.54,2-8.31-0.77c-2.1-2.1-3-4.51-3-6.61
		c0.02-1.75,0.66-3.48,1.84-4.99c0.36-0.49,0.7-0.87,0.97-1.13L168.18,172.53z M173.92,179.09c-1.53-1.53-3.31-1.58-4.64-0.25
		c-0.87,0.87-1.13,2.21-0.75,3.38c0.07,0.26,0.21,0.54,0.48,0.8c1.79,1.72,3.89,2.21,5.4,0.71
		C175.64,182.49,175.44,180.62,173.92,179.09z"/>
	<path d="M177.07,164.04L173,168.1l2.33,3.15c0.21-0.28,0.41-0.54,0.8-0.94c0.82-0.82,1.82-1.46,2.87-1.72
		c1.31-0.36,2.92-0.13,4.26,1.21c2.08,2.08,1.98,5.3-0.33,7.61c-1.16,1.16-2.48,1.82-3.31,2l-0.74-1.46
		c0.71-0.18,1.9-0.72,2.87-1.69c1.36-1.36,1.64-3.41,0.21-4.84c-1.39-1.36-3.3-1.43-5.43,0.71c-0.61,0.61-1.02,1.15-1.36,1.59
		l-4.43-5.81l5.1-5.1L177.07,164.04z"/>
	<path d="M183.55,158.25c1.33,1.33,1.13,3.26,0,4.4c-1.28,1.28-3.12,1.18-4.26,0.03c-1.28-1.25-1.25-3.18-0.03-4.4
		C180.6,156.93,182.43,157.13,183.55,158.25z M180.17,161.79c0.75,0.75,1.9,0.79,2.62,0.06c0.74-0.74,0.69-1.9-0.12-2.71
		c-0.61-0.61-1.74-1.02-2.67-0.08C179.15,159.92,179.47,161.08,180.17,161.79z"/>
</g>
<g class="st0">
	<path d="M104.2,111.8l-2.9-2.9l-4.95,4.95l-0.95-0.95l-2.05-11.56l1.56-1.56l6.63,6.63l1.49-1.49l1.13,1.13l-1.49,1.49l2.9,2.9
		L104.2,111.8z M100.16,107.77l-3.56-3.56c-0.56-0.56-1.1-1.13-1.62-1.72l-0.05,0.05c0.3,0.95,0.49,1.67,0.69,2.46l1.02,6.23
		l0.03,0.03L100.16,107.77z"/>
	<path d="M105.07,92.04L101,96.1l2.33,3.15c0.21-0.28,0.41-0.54,0.8-0.94c0.82-0.82,1.82-1.46,2.87-1.72
		c1.31-0.36,2.92-0.13,4.26,1.21c2.08,2.08,1.98,5.3-0.33,7.61c-1.16,1.16-2.48,1.82-3.31,2l-0.74-1.46
		c0.71-0.18,1.9-0.72,2.87-1.69c1.36-1.36,1.64-3.41,0.21-4.84c-1.39-1.36-3.3-1.43-5.43,0.71c-0.61,0.61-1.02,1.15-1.36,1.59
		l-4.43-5.81l5.1-5.1L105.07,92.04z"/>
	<path d="M111.55,86.25c1.33,1.33,1.13,3.26,0,4.4c-1.28,1.28-3.12,1.18-4.26,0.03c-1.28-1.25-1.25-3.18-0.03-4.4
		C108.6,84.93,110.43,85.13,111.55,86.25z M108.17,89.79c0.75,0.75,1.9,0.79,2.62,0.06c0.74-0.74,0.69-1.9-0.12-2.71
		c-0.61-0.61-1.74-1.02-2.67-0.08C107.15,87.92,107.47,89.08,108.17,89.79z"/>
</g>
<g class="st0">
	<path d="M470.1,453.31c1.34,1.34,1.49,3.1,0.74,4.97l0.07,0.03c1.74-0.62,3.17-0.21,4.08,0.71c1.69,1.69,1.41,4.26-0.46,6.13
		c-2.07,2.07-4.4,1.8-5.72,0.47c-0.9-0.9-1.43-2.31-0.74-4.25l-0.05-0.05c-1.85,0.8-3.61,0.69-4.9-0.61
		c-1.85-1.85-1.51-4.69,0.52-6.72C465.87,451.77,468.54,451.75,470.1,453.31z M464.42,459.12c1.3,1.3,2.82,1.02,4.67-0.02
		c0.89-1.61,0.74-3.1-0.28-4.12c-1.03-1.13-2.8-1.26-4.17,0.1C463.36,456.38,463.33,458.02,464.42,459.12z M473.72,460.48
		c-1.07-1.07-2.44-0.84-4,0.07c-0.61,1.23-0.66,2.59,0.31,3.56c0.85,0.85,2.25,1.23,3.54-0.07
		C474.77,462.84,474.64,461.4,473.72,460.48z"/>
	<path d="M461.93,474.96l4.07-4.07l-2.33-3.15c-0.21,0.28-0.41,0.54-0.8,0.94c-0.82,0.82-1.82,1.46-2.87,1.72
		c-1.31,0.36-2.92,0.13-4.26-1.21c-2.08-2.08-1.98-5.3,0.33-7.61c1.16-1.16,2.48-1.82,3.31-2l0.74,1.46
		c-0.71,0.18-1.9,0.72-2.87,1.69c-1.36,1.36-1.64,3.41-0.21,4.84c1.39,1.36,3.3,1.43,5.43-0.71c0.61-0.61,1.02-1.15,1.36-1.59
		l4.43,5.81l-5.1,5.1L461.93,474.96z"/>
	<path d="M455.45,480.75c-1.33-1.33-1.13-3.26,0-4.39c1.28-1.28,3.12-1.18,4.26-0.03c1.28,1.25,1.25,3.18,0.03,4.4
		C458.4,482.07,456.57,481.87,455.45,480.75z M458.83,477.21c-0.75-0.75-1.9-0.79-2.62-0.07c-0.74,0.74-0.69,1.9,0.12,2.71
		c0.61,0.61,1.74,1.02,2.67,0.08C459.85,479.08,459.53,477.92,458.83,477.21z"/>
</g>
<g class="st0">
	<path d="M524.1,507.31c1.34,1.34,1.49,3.1,0.74,4.97l0.07,0.03c1.74-0.62,3.17-0.21,4.08,0.71c1.69,1.69,1.41,4.26-0.46,6.13
		c-2.07,2.07-4.4,1.8-5.72,0.47c-0.9-0.9-1.43-2.31-0.74-4.25l-0.05-0.05c-1.85,0.8-3.61,0.69-4.9-0.61
		c-1.85-1.85-1.51-4.69,0.52-6.72C519.87,505.77,522.54,505.75,524.1,507.31z M518.42,513.12c1.3,1.3,2.82,1.02,4.67-0.02
		c0.89-1.61,0.74-3.1-0.28-4.12c-1.03-1.13-2.8-1.26-4.17,0.1C517.36,510.38,517.33,512.02,518.42,513.12z M527.72,514.48
		c-1.06-1.07-2.44-0.84-4,0.07c-0.61,1.23-0.66,2.59,0.31,3.56c0.85,0.85,2.25,1.23,3.54-0.07
		C528.77,516.84,528.64,515.4,527.72,514.48z"/>
	<path d="M511.21,525.68c-3.62-3.62-4.28-6.97-1.92-9.33c2.08-2.08,5.44-1.54,9,1.95c3.58,3.58,4,7.08,1.84,9.25
		C517.88,529.8,514.6,529.08,511.21,525.68z M516.83,519.73c-2.77-2.77-5.2-3.49-6.51-2.18c-1.48,1.48-0.46,3.9,2.26,6.63
		c2.63,2.62,5.02,3.67,6.51,2.18C520.36,525.09,519.74,522.63,516.83,519.73z"/>
	<path d="M509.45,534.75c-1.33-1.33-1.13-3.26,0-4.39c1.28-1.28,3.12-1.18,4.26-0.03c1.28,1.25,1.25,3.18,0.03,4.4
		C512.4,536.07,510.57,535.87,509.45,534.75z M512.83,531.21c-0.75-0.75-1.9-0.79-2.62-0.07c-0.74,0.74-0.69,1.9,0.12,2.71
		c0.61,0.61,1.74,1.02,2.67,0.08C513.85,533.08,513.54,531.92,512.83,531.21z"/>
</g>
<g class="st0">
	<path d="M570,567.32l-0.95-0.95l-5.07-14.35l1.49-1.49l4.8,14.05l0.03,0.03l5.21-5.22l1.2,1.2L570,567.32z"/>
	<path d="M560.93,573.96l4.07-4.07l-2.33-3.15c-0.21,0.28-0.41,0.54-0.8,0.94c-0.82,0.82-1.82,1.46-2.87,1.72
		c-1.31,0.36-2.92,0.13-4.27-1.21c-2.08-2.08-1.98-5.3,0.33-7.61c1.17-1.16,2.48-1.82,3.31-2l0.74,1.46
		c-0.71,0.18-1.9,0.72-2.87,1.69c-1.36,1.36-1.64,3.41-0.21,4.84c1.39,1.36,3.3,1.43,5.43-0.71c0.61-0.61,1.02-1.15,1.36-1.59
		l4.43,5.81l-5.1,5.1L560.93,573.96z"/>
	<path d="M554.45,579.75c-1.33-1.33-1.13-3.26,0-4.39c1.28-1.28,3.12-1.18,4.26-0.03c1.28,1.25,1.25,3.18,0.03,4.4
		C557.4,581.07,555.57,580.87,554.45,579.75z M557.83,576.21c-0.75-0.75-1.9-0.79-2.62-0.07c-0.74,0.74-0.69,1.9,0.12,2.71
		c0.61,0.61,1.74,1.02,2.67,0.08C558.85,578.08,558.54,576.92,557.83,576.21z"/>
</g>
<g class="st0">
	<path d="M606,603.32l-0.95-0.95l-5.07-14.35l1.49-1.49l4.8,14.05l0.03,0.03l5.21-5.22l1.2,1.2L606,603.32z"/>
	<path d="M592.21,606.68c-3.62-3.62-4.28-6.97-1.92-9.33c2.08-2.08,5.44-1.54,9,1.95c3.58,3.58,4,7.08,1.84,9.25
		C598.88,610.8,595.6,610.08,592.21,606.68z M597.83,600.73c-2.77-2.77-5.2-3.49-6.51-2.18c-1.48,1.48-0.46,3.9,2.26,6.63
		c2.63,2.62,5.02,3.67,6.51,2.18C601.36,606.09,600.74,603.63,597.83,600.73z"/>
	<path d="M590.45,615.75c-1.33-1.33-1.13-3.26,0-4.39c1.28-1.28,3.12-1.18,4.26-0.03c1.28,1.25,1.25,3.18,0.03,4.4
		C593.4,617.07,591.57,616.87,590.45,615.75z M593.83,612.21c-0.75-0.75-1.9-0.79-2.62-0.07c-0.74,0.74-0.69,1.9,0.12,2.71
		c0.61,0.61,1.74,1.02,2.67,0.08C594.85,614.08,594.54,612.92,593.83,612.21z"/>
</g>
<g class="st0">
	<path d="M641.82,637.46c0.31-0.28,0.67-0.67,1.02-1.15c1.89-2.64,1.43-5.5-0.08-7.5l-0.05,0.05c0.16,1.18-0.16,2.62-1.34,3.8
		c-1.89,1.89-4.58,1.85-6.66-0.23c-1.95-1.95-2.43-5.08-0.21-7.3c2.28-2.28,5.54-2,8.32,0.77c2.1,2.1,3,4.51,3,6.61
		c-0.02,1.75-0.66,3.48-1.84,4.99c-0.36,0.49-0.7,0.87-0.97,1.13L641.82,637.46z M636.08,630.91c1.53,1.53,3.31,1.58,4.64,0.25
		c0.87-0.87,1.13-2.21,0.75-3.38c-0.07-0.26-0.21-0.54-0.48-0.8c-1.79-1.72-3.89-2.21-5.4-0.71
		C634.36,627.51,634.56,629.38,636.08,630.91z"/>
	<path d="M632.93,645.96l4.07-4.07l-2.33-3.15c-0.21,0.28-0.41,0.54-0.8,0.94c-0.82,0.82-1.82,1.46-2.87,1.72
		c-1.31,0.36-2.92,0.13-4.26-1.21c-2.08-2.08-1.98-5.3,0.33-7.61c1.16-1.16,2.48-1.82,3.31-2l0.74,1.46
		c-0.71,0.18-1.9,0.72-2.87,1.69c-1.36,1.36-1.64,3.41-0.21,4.84c1.39,1.36,3.3,1.43,5.43-0.71c0.61-0.61,1.02-1.15,1.36-1.59
		l4.43,5.81l-5.1,5.1L632.93,645.96z"/>
	<path d="M626.45,651.75c-1.33-1.33-1.13-3.26,0-4.39c1.28-1.28,3.12-1.18,4.26-0.03c1.28,1.25,1.25,3.18,0.03,4.4
		C629.4,653.07,627.57,652.87,626.45,651.75z M629.83,648.21c-0.75-0.75-1.9-0.79-2.62-0.07c-0.74,0.74-0.69,1.9,0.12,2.71
		c0.61,0.61,1.74,1.02,2.67,0.08C630.85,650.08,630.54,648.92,629.83,648.21z"/>
</g>
<g class="st0">
	<path d="M705.8,698.2l2.9,2.9l4.95-4.95l0.95,0.95l2.05,11.56l-1.56,1.56l-6.63-6.63l-1.49,1.49l-1.13-1.13l1.49-1.49l-2.9-2.9
		L705.8,698.2z M709.84,702.23l3.56,3.56c0.56,0.56,1.1,1.13,1.63,1.72l0.05-0.05c-0.3-0.95-0.49-1.67-0.69-2.46l-1.02-6.23
		l-0.03-0.03L709.84,702.23z"/>
	<path d="M704.93,717.96l4.07-4.07l-2.33-3.15c-0.21,0.28-0.41,0.54-0.8,0.94c-0.82,0.82-1.82,1.46-2.87,1.72
		c-1.31,0.36-2.92,0.13-4.26-1.21c-2.08-2.08-1.98-5.3,0.33-7.61c1.16-1.16,2.48-1.82,3.31-2l0.74,1.46
		c-0.71,0.18-1.9,0.72-2.87,1.69c-1.36,1.36-1.64,3.41-0.21,4.84c1.39,1.36,3.3,1.43,5.43-0.71c0.61-0.61,1.02-1.15,1.36-1.59
		l4.43,5.81l-5.1,5.1L704.93,717.96z"/>
	<path d="M698.45,723.75c-1.33-1.33-1.13-3.26,0-4.39c1.28-1.28,3.12-1.18,4.26-0.03c1.28,1.25,1.25,3.18,0.03,4.4
		C701.4,725.07,699.57,724.87,698.45,723.75z M701.83,720.21c-0.75-0.75-1.9-0.79-2.62-0.07c-0.74,0.74-0.69,1.9,0.12,2.71
		c0.61,0.61,1.74,1.02,2.67,0.08C702.85,722.08,702.54,720.92,701.83,720.21z"/>
</g>
<g class="st0">
	<path d="M405,200c27.68,0,54.52,5.42,79.79,16.11c24.41,10.33,46.33,25.11,65.16,43.93c18.83,18.83,33.61,40.75,43.93,65.16
		C604.58,350.48,610,377.32,610,405s-5.42,54.52-16.11,79.79c-10.32,24.41-25.11,46.33-43.93,65.16
		c-18.83,18.83-40.75,33.61-65.16,43.93C459.52,604.58,432.68,610,405,610s-54.52-5.42-79.79-16.11
		c-24.41-10.32-46.33-25.11-65.16-43.93c-18.83-18.83-33.61-40.75-43.93-65.16C205.42,459.52,200,432.68,200,405
		s5.42-54.52,16.11-79.79c10.32-24.41,25.11-46.33,43.93-65.16c18.83-18.83,40.75-33.61,65.16-43.93
		C350.48,205.42,377.32,200,405,200 M405,198c-114.32,0-207,92.68-207,207s92.68,207,207,207s207-92.68,207-207S519.32,198,405,198
		L405,198z"/>
</g>
<g class="st0">
	<path d="M405,146c34.97,0,68.88,6.85,100.81,20.35c30.84,13.04,58.54,31.72,82.33,55.51c23.79,23.79,42.46,51.49,55.51,82.33
		C657.15,336.12,664,370.03,664,405s-6.85,68.88-20.35,100.81c-13.04,30.84-31.72,58.54-55.51,82.33
		c-23.79,23.79-51.49,42.46-82.33,55.51C473.88,657.15,439.97,664,405,664s-68.88-6.85-100.81-20.35
		c-30.84-13.04-58.54-31.72-82.33-55.51c-23.79-23.79-42.46-51.49-55.51-82.33C152.85,473.88,146,439.97,146,405
		s6.85-68.88,20.35-100.81c13.04-30.84,31.72-58.54,55.51-82.33c23.79-23.79,51.49-42.46,82.33-55.51
		C336.12,152.85,370.03,146,405,146 M405,144c-144.15,0-261,116.85-261,261s116.85,261,261,261s261-116.85,261-261
		S549.15,144,405,144L405,144z"/>
</g>
<g class="st0">
	<path d="M405,101c41.04,0,80.85,8.04,118.33,23.89c36.2,15.31,68.71,37.23,96.63,65.15c27.92,27.92,49.84,60.43,65.15,96.63
		C700.96,324.15,709,363.96,709,405s-8.04,80.85-23.89,118.33c-15.31,36.2-37.23,68.71-65.15,96.63
		c-27.92,27.92-60.43,49.84-96.63,65.15C485.85,700.96,446.04,709,405,709s-80.85-8.04-118.33-23.89
		c-36.2-15.31-68.71-37.23-96.63-65.15c-27.92-27.92-49.84-60.43-65.15-96.63C109.04,485.85,101,446.04,101,405
		s8.04-80.85,23.89-118.33c15.31-36.2,37.23-68.71,65.15-96.63c27.92-27.92,60.43-49.84,96.63-65.15
		C324.15,109.04,363.96,101,405,101 M405,99C236,99,99,236,99,405s137,306,306,306s306-137,306-306S574,99,405,99L405,99z"/>
</g>
<g class="st0">
	<path d="M405,56c47.12,0,92.82,9.23,135.85,27.43c41.56,17.58,78.88,42.74,110.93,74.79S709,227.6,726.57,269.15
		C744.77,312.18,754,357.88,754,405c0,47.12-9.23,92.82-27.43,135.85c-17.58,41.56-42.74,78.88-74.79,110.93
		S582.4,709,540.85,726.57C497.82,744.77,452.12,754,405,754s-92.82-9.23-135.85-27.43c-41.56-17.58-78.88-42.74-110.93-74.79
		S101,582.4,83.43,540.85C65.23,497.82,56,452.12,56,405c0-47.12,9.23-92.82,27.43-135.85c17.58-41.56,42.74-78.88,74.79-110.93
		S227.6,101,269.15,83.43C312.18,65.23,357.88,56,405,56 M405,54C211.15,54,54,211.15,54,405s157.15,351,351,351s351-157.15,351-351
		S598.85,54,405,54L405,54z"/>
</g>
<g class="st0">
	<path d="M405,29c50.76,0,100,9.94,146.36,29.55c44.77,18.94,84.98,46.05,119.52,80.58c34.53,34.53,61.64,74.74,80.58,119.52
		C771.06,305,781,354.24,781,405s-9.94,100-29.55,146.36c-18.94,44.77-46.05,84.98-80.58,119.52
		c-34.53,34.53-74.74,61.64-119.52,80.58C505,771.06,455.76,781,405,781s-100-9.94-146.36-29.55
		c-44.77-18.94-84.98-46.05-119.52-80.58c-34.53-34.53-61.64-74.74-80.58-119.52C38.94,505,29,455.76,29,405s9.94-100,29.55-146.36
		c18.94-44.77,46.05-84.98,80.58-119.52c34.53-34.53,74.74-61.64,119.52-80.58C305,38.94,354.24,29,405,29 M405,27
		C196.24,27,27,196.24,27,405s169.24,378,378,378s378-169.24,378-378S613.76,27,405,27L405,27z"/>
</g>
<g class="st0">
	<path d="M405,11c53.19,0,104.79,10.42,153.36,30.96c46.92,19.84,89.05,48.25,125.24,84.44c36.18,36.18,64.59,78.32,84.44,125.24
		C788.58,300.21,799,351.81,799,405s-10.42,104.79-30.96,153.36c-19.84,46.92-48.25,89.05-84.44,125.24
		c-36.18,36.18-78.32,64.59-125.24,84.44C509.79,788.58,458.19,799,405,799s-104.79-10.42-153.36-30.96
		c-46.92-19.84-89.05-48.25-125.24-84.44c-36.18-36.18-64.59-78.32-84.44-125.24C21.42,509.79,11,458.19,11,405
		s10.42-104.79,30.96-153.36c19.84-46.92,48.25-89.05,84.44-125.24c36.18-36.18,78.32-64.59,125.24-84.44
		C300.21,21.42,351.81,11,405,11 M405,9C186.3,9,9,186.3,9,405s177.3,396,396,396s396-177.3,396-396S623.7,9,405,9L405,9z"/>
</g>
<g class="st5">
	<g>
		<path d="M407.74,180v-24.26h3.42l7.77,12.27c1.8,2.84,3.2,5.4,4.36,7.88l0.07-0.04c-0.29-3.24-0.36-6.19-0.36-9.97v-10.15h2.95
			V180h-3.17l-7.7-12.31c-1.69-2.7-3.31-5.47-4.54-8.1l-0.11,0.04c0.18,3.06,0.25,5.98,0.25,10.01V180H407.74z"/>
	</g>
	<g>
		<path d="M541.93,234.04l17.16-17.15l2.42,2.42l-3.18,14.18c-0.74,3.28-1.55,6.08-2.49,8.65l0.08,0.03
			c2.09-2.49,4.12-4.63,6.8-7.31l7.18-7.18l2.09,2.09l-17.16,17.15l-2.24-2.24l3.26-14.15c0.71-3.11,1.53-6.21,2.52-8.93l-0.1-0.05
			c-2.04,2.29-4.05,4.4-6.9,7.25l-7.33,7.33L541.93,234.04z"/>
		<path d="M581.01,257.02l-6.67-6.67l-6.19,6.18l7.43,7.43l-1.86,1.86l-9.65-9.65l17.16-17.15l9.26,9.26l-1.86,1.86l-7.05-7.05
			l-5.42,5.42l6.67,6.67L581.01,257.02z"/>
	</g>
	<g>
		<path d="M637.68,423.34v-9.43h-8.75v10.51h-2.63v-13.64h24.26v13.1h-2.63v-9.97h-7.67v9.43H637.68z"/>
	</g>
	<g>
		<path d="M589.32,537.4c-1.6,0.38-3.56,1.32-5.09,2.85c-2.27,2.27-2.39,4.79-0.66,6.52c1.6,1.6,3.44,1.6,6.64,0.18
			c3.79-1.81,6.97-2.09,9.39,0.33c2.67,2.67,2.44,6.87-0.89,10.21c-1.76,1.76-3.44,2.62-4.63,2.95l-1.2-2.42
			c0.87-0.25,2.52-0.89,4.07-2.44c2.34-2.34,1.83-4.63,0.66-5.8c-1.6-1.6-3.44-1.35-6.72,0.1c-4.02,1.78-6.9,1.86-9.42-0.66
			c-2.65-2.65-2.98-6.9,1.07-10.94c1.65-1.66,3.95-2.98,5.47-3.28L589.32,537.4z"/>
		<path d="M540.55,596.87l6.67-6.67l-6.19-6.18l-7.43,7.43l-1.86-1.86l9.65-9.65l17.16,17.15l-9.26,9.26l-1.86-1.86l7.05-7.05
			l-5.42-5.42l-6.67,6.67L540.55,596.87z"/>
	</g>
	<g>
		<path d="M222.43,282.08l-17.15-17.15l2.42-2.42l14.18,3.18c3.28,0.74,6.08,1.55,8.65,2.49l0.03-0.08
			c-2.49-2.09-4.63-4.12-7.31-6.8l-7.18-7.18l2.09-2.09l17.15,17.15l-2.24,2.24l-14.15-3.26c-3.11-0.71-6.21-1.53-8.93-2.52
			l-0.05,0.1c2.29,2.04,4.4,4.05,7.25,6.9l7.33,7.33L222.43,282.08z"/>
		<path d="M272.4,216.03l-6.67,6.67l6.18,6.19l7.43-7.43l1.86,1.86l-9.65,9.65L254.4,215.8l9.26-9.26l1.86,1.86l-7.05,7.05
			l5.42,5.42l6.67-6.67L272.4,216.03z"/>
	</g>
	<g>
		<path d="M401.45,628.9c-1.4-0.86-3.46-1.58-5.62-1.58c-3.2,0-5.08,1.69-5.08,4.14c0,2.27,1.3,3.56,4.57,4.82
			c3.96,1.4,6.41,3.46,6.41,6.88c0,3.78-3.13,6.59-7.85,6.59c-2.48,0-4.28-0.58-5.36-1.19l0.86-2.55c0.79,0.43,2.41,1.15,4.61,1.15
			c3.31,0,4.57-1.98,4.57-3.64c0-2.27-1.48-3.38-4.82-4.68c-4.1-1.58-6.19-3.56-6.19-7.13c0-3.74,2.77-6.98,8.49-6.98
			c2.34,0,4.9,0.68,6.19,1.55L401.45,628.9z"/>
	</g>
	<g>
		<path d="M260.16,577.68c-0.38-1.6-1.32-3.56-2.85-5.09c-2.27-2.27-4.78-2.39-6.52-0.66c-1.6,1.6-1.6,3.44-0.18,6.64
			c1.81,3.79,2.09,6.97-0.33,9.39c-2.67,2.67-6.87,2.44-10.21-0.89c-1.76-1.76-2.62-3.44-2.95-4.63l2.42-1.2
			c0.25,0.87,0.89,2.52,2.44,4.07c2.34,2.34,4.63,1.83,5.8,0.66c1.6-1.6,1.35-3.44-0.1-6.72c-1.78-4.02-1.86-6.9,0.66-9.42
			c2.65-2.65,6.9-2.98,10.94,1.07c1.65,1.65,2.98,3.95,3.28,5.47L260.16,577.68z"/>
		<path d="M221.19,550.83c5.91-5.91,12.63-5.45,17-1.07c4.53,4.53,4.2,11.23-0.99,16.42c-5.45,5.45-12.4,5.63-16.98,1.04
			C215.54,562.54,216.1,555.92,221.19,550.83z M234.78,563.86c3.67-3.66,4.96-8.93,1.48-12.42c-3.51-3.51-8.73-2.27-12.63,1.63
			c-3.41,3.41-5.19,8.75-1.5,12.45C225.8,569.18,231.02,567.63,234.78,563.86z"/>
	</g>
	<g>
		<path d="M172.98,376.42c8.35,0,12.78,5.08,12.78,11.27c0,6.41-4.97,10.91-12.31,10.91c-7.7,0-12.74-4.79-12.74-11.27
			C160.71,380.7,165.78,376.42,172.98,376.42z M173.38,395.25c5.18,0,9.83-2.81,9.83-7.74c0-4.97-4.57-7.78-10.08-7.78
			c-4.82,0-9.86,2.52-9.86,7.74C163.26,392.65,168.05,395.25,173.38,395.25z"/>
	</g>
</g>
</svg>
