<svg id="Calque_1" data-name="Calque 1" xmlns="http://www.w3.org/2000/svg" viewBox="0 0 216 216"><title>innfantry</title><polygon points="68.63 84.38 68.63 131.63 92.25 108 68.63 84.38"/><polygon points="84.38 147.38 131.63 147.38 108 123.75 84.38 147.38"/><polygon points="131.63 68.63 84.38 68.63 108 92.25 131.63 68.63"/><polygon points="147.38 131.63 147.38 84.38 123.75 108 147.38 131.63"/><path d="M324,504H216V612A108,108,0,0,0,324,720h0A108,108,0,0,0,432,612h0A108,108,0,0,0,324,504Zm63,66V675H261V549H387Z" transform="translate(-216 -504)"/></svg>