<?xml version="1.0" encoding="utf-8"?>
<!-- Generator: Adobe Illustrator 24.0.1, SVG Export Plug-In . SVG Version: 6.00 Build 0)  -->
<svg fill="#870000" version="1.1" xmlns="http://www.w3.org/2000/svg" xmlns:xlink="http://www.w3.org/1999/xlink" x="0px" y="0px"
	 viewBox="0 0 216 216" style="enable-background:new 0 0 216 216;" xml:space="preserve">
<g id="Calque_1">
	<path d="M162,153l45-45l-45-45l-27,27l-9-9l27-27L108,9L63,54l27,27l-9,9L54,63L9,108l45,45l27-27l9,9l-27,27l45,45l45-45l-27-27
		l9-9L162,153z M103.58,122.66l-0.69-13.19l-3.92,13.19h-6.5l-4.15-13.72l-0.77,13.72H81l1.81-32.31h6.69l6.19,20.22l6.04-20.22
		h6.69l1.65,32.31H103.58z M126.25,122.5c-0.76,0.13-1.51,0.2-2.25,0.2c-1.82,0-3.6-0.4-5.35-1.19c-1.74-0.79-3.31-1.98-4.69-3.56
		c-1.39-1.58-2.42-3.36-3.1-5.34c-0.68-1.98-1.02-4.01-1.02-6.09c0-2.08,0.34-4.12,1.02-6.11c0.68-1.99,1.71-3.78,3.1-5.36
		c1.38-1.58,2.95-2.77,4.69-3.56c1.74-0.79,3.52-1.19,5.35-1.19c1.82,0,3.6,0.4,5.35,1.19c1.74,0.79,3.31,1.98,4.69,3.56l-4.62,5.28
		c-0.74-0.85-1.59-1.49-2.54-1.91c-0.95-0.42-1.91-0.64-2.88-0.64c-0.98,0-1.94,0.21-2.88,0.64c-0.95,0.43-1.8,1.06-2.54,1.91
		c-0.74,0.85-1.31,1.82-1.69,2.9c-0.38,1.09-0.58,2.18-0.58,3.3c0,1.11,0.19,2.21,0.58,3.3c0.39,1.08,0.95,2.05,1.69,2.9
		c0.67,0.76,1.42,1.36,2.25,1.78c0.83,0.43,1.69,0.67,2.58,0.75c0.88,0.07,1.76-0.02,2.63-0.29c0.87-0.26,1.68-0.7,2.42-1.32v-1.63
		h-5.65v-7.43H135v18.07h-6.54v-0.79C127.74,122.16,127.01,122.37,126.25,122.5z"/>
</g>
<g id="Calque_2">
</g>
</svg>
