<?xml version="1.0" encoding="utf-8"?>
<!-- Generator: Adobe Illustrator 24.0.1, SVG Export Plug-In . SVG Version: 6.00 Build 0)  -->
<svg version="1.1" xmlns="http://www.w3.org/2000/svg" xmlns:xlink="http://www.w3.org/1999/xlink" x="0px" y="0px"
	 viewBox="0 0 216 216" style="enable-background:new 0 0 216 216;" xml:space="preserve">
<g id="Calque_1">
	<path d="M162,153l45-45l-45-45l-27,27l-9-9l27-27L108,9L63,54l27,27l-9,9L54,63L9,108l45,45l27-27l9,9l-27,27l45,45l45-45l-27-27
		l9-9L162,153z M113.12,102.84l2.93,5.87c0.5,1,0.76,2.1,0.76,3.22v9.96c0,1.12-0.26,2.22-0.76,3.22l-1.7,3.4
		c-1.22,2.44-3.72,3.98-6.45,3.98s-5.23-1.54-6.45-3.98l-1.7-3.4c-0.5-1-0.76-2.1-0.76-3.22v-9.96c0-1.12,0.26-2.22,0.76-3.22
		l2.93-5.87c0.5-1,0.76-2.1,0.76-3.22v-5.51c0-1.12-0.26-2.22-0.76-3.22L99,83.5h17.82l-3.69,7.39c-0.5,1-0.76,2.1-0.76,3.22v5.51
		C112.36,100.74,112.62,101.84,113.12,102.84z"/>
</g>
<g id="Calque_2">
</g>
</svg>
